<svg xmlns="http://www.w3.org/2000/svg" fill="white" height="200" width="200" enable-background="new 0 0 24 24" viewBox="0 0 24 24"><path d="M11.511,17H7.598c-0.414,0-0.75-0.336-0.75-0.75v-0.194H0.75c-0.414,0-0.75-0.336-0.75-0.75V7.75C0,7.336,0.336,7,0.75,7h22.5C23.664,7,24,7.336,24,7.75v7.556c0,0.414-0.336,0.75-0.75,0.75H12.261v0.194C12.261,16.664,11.925,17,11.511,17z M8.348,15.5h2.413v-0.194c0-0.414,0.336-0.75,0.75-0.75H22.5V8.5h-21v6.056h6.098c0.414,0,0.75,0.336,0.75,0.75V15.5z"/><path d="M7.598 16.056c-.414 0-.75-.336-.75-.75V7.75C6.848 7.336 7.184 7 7.598 7s.75.336.75.75v7.556C8.348 15.72 8.012 16.056 7.598 16.056zM14.446 16.056c-.414 0-.75-.336-.75-.75V7.75c0-.414.336-.75.75-.75s.75.336.75.75v7.556C15.196 15.72 14.86 16.056 14.446 16.056zM17.38 16.056c-.414 0-.75-.336-.75-.75v-4.723c0-.414.336-.75.75-.75s.75.336.75.75v4.723C18.13 15.72 17.794 16.056 17.38 16.056zM4.663 16.056c-.414 0-.75-.336-.75-.75v-4.723c0-.414.336-.75.75-.75s.75.336.75.75v4.723C5.413 15.72 5.077 16.056 4.663 16.056zM20.315 16.056c-.414 0-.75-.336-.75-.75v-4.723c0-.414.336-.75.75-.75s.75.336.75.75v4.723C21.065 15.72 20.729 16.056 20.315 16.056zM11.511 13.223c-.414 0-.75-.336-.75-.75v-1.89c0-.414.336-.75.75-.75s.75.336.75.75v1.89C12.261 12.887 11.925 13.223 11.511 13.223z"/></svg>